<svg width="52" height="21" viewBox="0 0 52 21" fill="none" xmlns="http://www.w3.org/2000/svg">
<path fill-rule="evenodd" clip-rule="evenodd" d="M12.6768 16.4715H16.1823L9.93153 0H7.05957L0.829956 16.4715H4.33543L5.66583 12.8182H11.3253L12.6768 16.4715ZM10.2061 9.73509H6.78504L8.49555 5.06816L10.2061 9.73509ZM28.0034 8.27799C27.6866 7.56 27.2643 6.92648 26.7152 6.35631C26.145 5.80726 25.5115 5.38491 24.7935 5.06815C24.0544 4.75139 23.2731 4.60357 22.4495 4.60357C21.6471 4.60357 20.8446 4.75139 20.1055 5.06815C19.3875 5.38491 18.754 5.80726 18.1838 6.35631C17.6348 6.90536 17.2124 7.56 16.8957 8.27799C16.6 9.0171 16.4311 9.79844 16.4311 10.622V19.5969L19.5987 20.6527V15.9225C19.7676 16.0069 19.9365 16.0914 20.1055 16.1548C20.8446 16.4715 21.6471 16.6405 22.4495 16.6405C23.252 16.6405 24.0544 16.4715 24.7935 16.1548C25.5115 15.8591 26.145 15.4368 26.7152 14.8666C27.2643 14.3175 27.6866 13.684 28.0034 12.966C28.3201 12.2269 28.4679 11.4245 28.4679 10.622C28.4679 9.79844 28.3201 9.0171 28.0034 8.27799ZM22.4495 13.4729C20.8868 13.4729 19.5987 12.1847 19.5987 10.622C19.5987 9.05933 20.8868 7.77117 22.4495 7.77117C24.0122 7.77117 25.3004 9.05933 25.3004 10.622C25.3004 12.1847 24.0122 13.4729 22.4495 13.4729ZM36.8575 16.0492C36.0973 16.3871 35.2948 16.556 34.4712 16.556C32.8663 16.556 31.3881 15.9225 30.2478 14.8033C29.1286 13.684 28.5161 12.1847 28.5161 10.6009C28.5161 9.01711 29.1286 7.51778 30.2478 6.39856C31.3881 5.27935 32.8663 4.64583 34.4712 4.64583C36.055 4.64583 37.5544 5.27935 38.6736 6.39856C39.7928 7.51778 40.4052 9.01711 40.4052 10.6009V12.1425H32.0216C32.5284 12.9449 33.4365 13.494 34.4712 13.494C35.2737 13.494 36.0128 13.1772 36.5619 12.5859L38.8003 14.6977C38.2512 15.2678 37.5966 15.7324 36.8575 16.0492ZM34.4712 7.70784C33.4365 7.70784 32.5284 8.25689 32.0216 9.08047H36.9209C36.3929 8.25689 35.4849 7.70784 34.4712 7.70784Z" fill="#FB8E0B"/>
<path d="M47.5904 16.4716H51.3492L47.0624 10.5587L51.307 4.70923H47.4848L45.1407 7.98242L42.839 4.70923H38.9534L43.2402 10.5376L38.9745 16.4716H42.7123L45.1619 13.2195L47.5904 16.4716Z" fill="#FD6003"/>
</svg>
